# xmcd
#
# Track frame offsets: 
#        150
#        11355
#        39081
#        69942
#        99108
#        139334
#        158297
#        173361
#        203102
#        230836
#
# Disc length: 3508 seconds
#
# Revision: 0
# Processed by: cddbd v1.5.2PL0 Copyright (c) Steve Scherf et al.
# Submitted via: ExactAudioCopy v1.3
#
DISCID=680db20a
DTITLE=Marko Matjašič - Zgodbe
DYEAR=2017
DGENRE=Blues
TTITLE0=Prva
TTITLE1=druga 
TTITLE2=tretja
TTITLE3=četrta
TTITLE4=peta
TTITLE5=šesta
TTITLE6=sedma
TTITLE7=osma
TTITLE8=deveta
TTITLE9=Zadnja
EXTD=
EXTT0=
EXTT1=
EXTT2=
EXTT3=
EXTT4=
EXTT5=
EXTT6=
EXTT7=
EXTT8=
EXTT9=
PLAYORDER=
